# xmcd
#
# Track frame offsets: 
#        182
#        17782
#        31332
#        48750
#        63042
#        75342
#        90097
#        108335
#        120390
#        135197
#
# Disc length: 2052 seconds
#
# Revision: 0
# Processed by: cddbd v1.5.2PL0 Copyright (c) Steve Scherf et al.
# Submitted via: ExactAudioCopy v1.3
#
DISCID=5e08020a
DTITLE=Joni Bishop - Everyday Miracles
DYEAR=1993
DGENRE=Country
TTITLE0=When God made you
TTITLE1=I'd hardly noticed you were gone
TTITLE2=Mojave Rose
TTITLE3=Everyday miracles
TTITLE4=Rest assured
TTITLE5=Money tree
TTITLE6=The art of flying
TTITLE7=Sequoia
TTITLE8=Thief of hearts
TTITLE9=Living love
EXTD=
EXTT0=
EXTT1=
EXTT2=
EXTT3=
EXTT4=
EXTT5=
EXTT6=
EXTT7=
EXTT8=
EXTT9=
PLAYORDER=
